<?xml version="1.0" encoding="UTF-8" standalone="no"?>
<!-- Created with Inkscape (http://www.inkscape.org/) -->

<svg
   width="167.54111"
   height="136.65079"
   viewBox="0 0 167.54111 136.65078"
   version="1.1"
   id="svg5"
   inkscape:version="1.2.1 (9c6d41e410, 2022-07-14)"
   sodipodi:docname="logo.svg"
   xmlns:inkscape="http://www.inkscape.org/namespaces/inkscape"
   xmlns:sodipodi="http://sodipodi.sourceforge.net/DTD/sodipodi-0.dtd"
   xmlns="http://www.w3.org/2000/svg"
   xmlns:svg="http://www.w3.org/2000/svg">
  <sodipodi:namedview
     id="namedview7"
     pagecolor="#ffffff"
     bordercolor="#000000"
     borderopacity="0.25"
     inkscape:showpageshadow="2"
     inkscape:pageopacity="0.0"
     inkscape:pagecheckerboard="0"
     inkscape:deskcolor="#d1d1d1"
     inkscape:document-units="px"
     showgrid="false"
     inkscape:zoom="3.4451814"
     inkscape:cx="41.071858"
     inkscape:cy="94.189525"
     inkscape:window-width="1920"
     inkscape:window-height="1080"
     inkscape:window-x="0"
     inkscape:window-y="0"
     inkscape:window-maximized="1"
     inkscape:current-layer="layer1"
     showguides="true">
    <sodipodi:guide
       position="44.43678,69.125949"
       orientation="0,-1"
       id="guide380"
       inkscape:locked="false" />
    <sodipodi:guide
       position="48.336438,77.130519"
       orientation="0,-1"
       id="guide382"
       inkscape:locked="false" />
  </sodipodi:namedview>
  <defs
     id="defs2">
    <rect
       x="8.518219"
       y="27.181501"
       width="95.212624"
       height="115.71836"
       id="rect133" />
    <rect
       x="8.518219"
       y="27.181501"
       width="95.212624"
       height="115.71836"
       id="rect133-3" />
  </defs>
  <g
     inkscape:label="Layer 1"
     inkscape:groupmode="layer"
     id="layer1"
     transform="translate(-16.931519,13.134866)">
    <g
       aria-label="0"
       transform="matrix(2.5736227,0,0,2.5736227,1.9895677,-71.827451)"
       id="text131"
       style="white-space:pre;shape-inside:url(#rect133);display:inline;fill:#ffffff">
      <path
         d="m 12.489578,38.019189 q -1.116,0 -1.884,-0.504 -0.7679999,-0.516 -1.1639999,-1.452 -0.384,-0.936 -0.384,-2.208 0,-1.932 0.876,-3.036 0.8759999,-1.104 2.5559999,-1.104 1.692,0 2.568,1.104 0.876,1.104 0.876,3.036 0,1.272 -0.396,2.208 -0.384,0.936 -1.152,1.452 -0.768,0.504 -1.896,0.504 z m 1.488,-3.096 q 0.072,-0.468 0.072,-1.056 0,-1.464 -0.432,-2.124 -0.42,-0.672 -1.128,-0.672 -0.54,0 -0.924,0.396 z m -1.488,1.74 q 0.6,0 0.972,-0.456 l -2.436,-3.504 q -0.048,0.252 -0.072,0.54 -0.024,0.276 -0.024,0.612 0,1.452 0.432,2.136 0.432,0.672 1.128,0.672 z"
         style="font-weight:bold;font-family:'Atkinson Hyperlegible';-inkscape-font-specification:'Atkinson Hyperlegible Bold';fill:#ffffff"
         id="path1203" />
    </g>
    <g
       aria-label="bullshit food blog"
       transform="matrix(2.5736227,0,0,2.5736227,26.871576,-67.672829)"
       id="text131-6"
       style="line-height:1;letter-spacing:-0.42px;white-space:pre;shape-inside:url(#rect133-3);display:inline;fill:#ffffff">
      <path
         d="m 12.753578,36.519189 q -0.48,0 -1.008,-0.228 -0.516,-0.228 -0.804,-0.72 l -0.228,0.804 H 9.1175781 v -8.016 h 1.8239999 v 2.88 q 0.288,-0.492 0.804,-0.732 0.528,-0.252 1.008,-0.252 0.768,0 1.356,0.372 0.6,0.372 0.936,1.068 0.336,0.684 0.336,1.656 0,0.972 -0.336,1.692 -0.336,0.708 -0.936,1.092 -0.588,0.384 -1.356,0.384 z m -0.576,-1.416 q 0.528,0 0.912,-0.456 0.396,-0.468 0.396,-1.296 0,-0.816 -0.396,-1.248 -0.384,-0.432 -0.912,-0.432 -0.54,0 -0.936,0.408 -0.384,0.396 -0.384,1.308 0,0.924 0.384,1.32 0.396,0.396 0.936,0.396 z"
         style="font-weight:bold;font-family:'Atkinson Hyperlegible';-inkscape-font-specification:'Atkinson Hyperlegible Bold';fill:#ffffff"
         id="path1170" />
      <path
         d="m 17.913563,36.519189 q -0.792,0 -1.248,-0.288 -0.444,-0.3 -0.636,-0.864 -0.18,-0.564 -0.18,-1.368 v -3.576 h 1.824 v 3.324 q 0,0.816 0.24,1.092 0.252,0.264 0.696,0.264 0.54,0 0.78,-0.36 0.252,-0.36 0.252,-1.188 v -3.132 h 1.836 v 5.952 h -1.584 l -0.252,-0.84 q -0.264,0.444 -0.66,0.72 -0.384,0.264 -1.068,0.264 z"
         style="font-weight:bold;font-family:'Atkinson Hyperlegible';-inkscape-font-specification:'Atkinson Hyperlegible Bold';fill:#ffffff"
         id="path1172" />
      <path
         d="m 24.237559,36.375189 q -0.732,0 -1.164,-0.12 -0.432,-0.132 -0.624,-0.492 -0.18,-0.372 -0.18,-1.068 v -6.336 h 1.824 v 5.856 q 0,0.42 0.168,0.552 0.168,0.12 0.624,0.12 h 0.516 v 1.488 z"
         style="font-weight:bold;font-family:'Atkinson Hyperlegible';-inkscape-font-specification:'Atkinson Hyperlegible Bold';fill:#ffffff"
         id="path1174" />
      <path
         d="m 27.58555,36.375189 q -0.732,0 -1.164,-0.12 -0.432,-0.132 -0.624,-0.492 -0.18,-0.372 -0.18,-1.068 v -6.336 h 1.824 v 5.856 q 0,0.42 0.168,0.552 0.168,0.12 0.624,0.12 h 0.516 v 1.488 z"
         style="letter-spacing:-0.18px;fill:#ffffff"
         id="path1176" />
      <path
         d="m 31.773539,36.519189 q -1.044,0 -1.812,-0.384 -0.756,-0.384 -1.104,-1.128 l 1.548,-0.564 q 0.132,0.372 0.504,0.564 0.384,0.18 0.9,0.18 0.444,0 0.78,-0.132 0.348,-0.144 0.348,-0.42 0,-0.192 -0.204,-0.324 -0.204,-0.132 -0.72,-0.216 l -1.068,-0.18 q -0.864,-0.144 -1.404,-0.588 -0.54,-0.444 -0.54,-1.188 0,-0.624 0.372,-1.044 0.384,-0.42 1.008,-0.624 0.624,-0.216 1.356,-0.216 0.852,0 1.572,0.312 0.732,0.3 1.068,1.008 l -1.536,0.564 q -0.084,-0.324 -0.396,-0.432 -0.312,-0.12 -0.72,-0.12 -0.984,0 -0.984,0.48 0,0.18 0.168,0.3 0.168,0.108 0.564,0.18 l 1.104,0.204 q 1.08,0.192 1.596,0.564 0.516,0.372 0.516,1.116 0,0.696 -0.396,1.164 -0.396,0.468 -1.056,0.696 -0.66,0.228 -1.464,0.228 z"
         style="letter-spacing:-0.18px;fill:#ffffff"
         id="path1178" />
      <path
         d="m 35.433521,36.375189 v -8.016 h 1.824 v 2.856 q 0.204,-0.336 0.672,-0.648 0.48,-0.312 1.164,-0.312 1.152,0 1.572,0.648 0.432,0.636 0.432,1.848 v 3.624 h -1.824 v -3.168 q 0,-0.42 -0.048,-0.768 -0.048,-0.348 -0.24,-0.552 -0.18,-0.216 -0.624,-0.216 -0.576,0 -0.84,0.42 -0.264,0.408 -0.264,1.224 v 3.06 z"
         style="font-weight:bold;font-family:'Atkinson Hyperlegible';-inkscape-font-specification:'Atkinson Hyperlegible Bold';fill:#ffffff"
         id="path1180" />
      <path
         d="m 43.437488,29.439189 q -0.444,0 -0.768,-0.312 -0.312,-0.324 -0.312,-0.768 0,-0.456 0.312,-0.768 0.324,-0.312 0.768,-0.312 0.456,0 0.768,0.312 0.312,0.312 0.312,0.768 0,0.444 -0.312,0.768 -0.312,0.312 -0.768,0.312 z m -0.924,6.936 v -4.56 h -1.128 v -1.392 h 2.964 v 5.952 z"
         style="font-weight:bold;font-family:'Atkinson Hyperlegible';-inkscape-font-specification:'Atkinson Hyperlegible Bold';fill:#ffffff"
         id="path1182" />
      <path
         d="m 47.565474,36.375189 q -0.732,0 -1.164,-0.12 -0.432,-0.132 -0.624,-0.492 -0.18,-0.372 -0.18,-1.068 v -2.88 h -0.984 v -1.392 h 0.984 v -1.488 h 1.824 v 1.488 h 1.296 v 1.392 h -1.296 v 2.4 q 0,0.42 0.156,0.552 0.168,0.12 0.612,0.12 h 0.528 v 1.488 z"
         style="font-weight:bold;font-family:'Atkinson Hyperlegible';-inkscape-font-specification:'Atkinson Hyperlegible Bold';fill:#ffffff"
         id="path1184" />
      <path
         d="m 9.5615781,48.451552 v -4.56 h -0.984 v -1.392 h 0.984 v -0.972 q 0,-0.708 0.24,-1.104 0.2399999,-0.396 0.7439999,-0.552 0.504,-0.156 1.308,-0.156 h 0.828 v 1.44 h -0.504 q -0.48,0 -0.636,0.096 -0.156,0.096 -0.156,0.444 v 0.804 h 1.296 v 1.392 h -1.296 v 4.56 z"
         style="word-spacing:-0.65px;fill:#ffffff"
         id="path1186" />
      <path
         d="m 15.69354,48.595552 q -0.828,0 -1.548,-0.336 -0.72,-0.336 -1.164,-1.032 -0.444,-0.708 -0.444,-1.776 0,-1.08 0.444,-1.764 0.444,-0.696 1.164,-1.02 0.72,-0.336 1.548,-0.336 0.816,0 1.536,0.336 0.72,0.324 1.164,1.02 0.444,0.684 0.444,1.764 0,1.068 -0.444,1.776 -0.444,0.696 -1.164,1.032 -0.72,0.336 -1.536,0.336 z m 0,-1.416 q 0.552,0 0.912,-0.396 0.372,-0.396 0.372,-1.332 0,-0.948 -0.384,-1.32 -0.372,-0.384 -0.9,-0.384 -0.54,0 -0.924,0.384 -0.372,0.372 -0.372,1.32 0,0.936 0.372,1.332 0.372,0.396 0.924,0.396 z"
         style="word-spacing:-0.65px;fill:#ffffff"
         id="path1188" />
      <path
         d="m 22.14954,48.595552 q -0.828,0 -1.548,-0.336 -0.72,-0.336 -1.164,-1.032 -0.444,-0.708 -0.444,-1.776 0,-1.08 0.444,-1.764 0.444,-0.696 1.164,-1.02 0.72,-0.336 1.548,-0.336 0.816,0 1.536,0.336 0.72,0.324 1.164,1.02 0.444,0.684 0.444,1.764 0,1.068 -0.444,1.776 -0.444,0.696 -1.164,1.032 -0.72,0.336 -1.536,0.336 z m 0,-1.416 q 0.552,0 0.912,-0.396 0.372,-0.396 0.372,-1.332 0,-0.948 -0.384,-1.32 -0.372,-0.384 -0.9,-0.384 -0.54,0 -0.924,0.384 -0.372,0.372 -0.372,1.32 0,0.936 0.372,1.332 0.372,0.396 0.924,0.396 z"
         style="word-spacing:-0.65px;fill:#ffffff"
         id="path1190" />
      <path
         d="m 28.077539,48.595552 q -0.768,0 -1.368,-0.384 -0.588,-0.384 -0.924,-1.092 -0.336,-0.72 -0.336,-1.692 0,-0.972 0.336,-1.656 0.336,-0.696 0.924,-1.068 0.6,-0.372 1.368,-0.372 0.492,0 1.008,0.252 0.516,0.24 0.804,0.732 v -2.88 h 1.824 v 5.688 q 0,0.444 0.036,1.056 0.048,0.612 0.168,1.272 h -1.74 l -0.24,-0.804 q -0.372,0.516 -0.876,0.732 -0.492,0.216 -0.984,0.216 z m 0.588,-1.416 q 0.528,0 0.912,-0.396 0.396,-0.396 0.396,-1.32 0,-0.912 -0.396,-1.308 -0.384,-0.408 -0.912,-0.408 -0.54,0 -0.936,0.432 -0.384,0.432 -0.384,1.248 0,0.828 0.384,1.296 0.396,0.456 0.936,0.456 z"
         style="word-spacing:-0.65px;fill:#ffffff"
         id="path1192" />
      <path
         d="m 38.899521,48.595552 q -0.48,0 -1.008,-0.228 -0.516,-0.228 -0.804,-0.72 l -0.228,0.804 h -1.596 v -8.016 h 1.824 v 2.88 q 0.288,-0.492 0.804,-0.732 0.528,-0.252 1.008,-0.252 0.768,0 1.356,0.372 0.6,0.372 0.936,1.068 0.336,0.684 0.336,1.656 0,0.972 -0.336,1.692 -0.336,0.708 -0.936,1.092 -0.588,0.384 -1.356,0.384 z m -0.576,-1.416 q 0.528,0 0.912,-0.456 0.396,-0.468 0.396,-1.296 0,-0.816 -0.396,-1.248 -0.384,-0.432 -0.912,-0.432 -0.54,0 -0.936,0.408 -0.384,0.396 -0.384,1.308 0,0.924 0.384,1.32 0.396,0.396 0.936,0.396 z"
         style="word-spacing:-0.65px;fill:#ffffff"
         id="path1194" />
      <path
         d="m 43.963508,48.451552 q -0.732,0 -1.164,-0.12 -0.432,-0.132 -0.624,-0.492 -0.18,-0.372 -0.18,-1.068 v -6.336 h 1.824 v 5.856 q 0,0.42 0.168,0.552 0.168,0.12 0.624,0.12 h 0.516 v 1.488 z"
         style="word-spacing:-0.65px;fill:#ffffff"
         id="path1196" />
      <path
         d="m 48.187496,48.595552 q -0.828,0 -1.548,-0.336 -0.72,-0.336 -1.164,-1.032 -0.444,-0.708 -0.444,-1.776 0,-1.08 0.444,-1.764 0.444,-0.696 1.164,-1.02 0.72,-0.336 1.548,-0.336 0.816,0 1.536,0.336 0.72,0.324 1.164,1.02 0.444,0.684 0.444,1.764 0,1.068 -0.444,1.776 -0.444,0.696 -1.164,1.032 -0.72,0.336 -1.536,0.336 z m 0,-1.416 q 0.552,0 0.912,-0.396 0.372,-0.396 0.372,-1.332 0,-0.948 -0.384,-1.32 -0.372,-0.384 -0.9,-0.384 -0.54,0 -0.924,0.384 -0.372,0.372 -0.372,1.32 0,0.936 0.372,1.332 0.372,0.396 0.924,0.396 z"
         style="word-spacing:-0.65px;fill:#ffffff"
         id="path1198" />
      <path
         d="m 54.715497,50.887552 q -0.492,0 -0.996,-0.132 -0.504,-0.12 -0.936,-0.432 -0.432,-0.312 -0.708,-0.852 l 1.488,-0.54 q 0.168,0.324 0.48,0.444 0.312,0.12 0.624,0.12 0.576,0 0.924,-0.276 0.348,-0.264 0.348,-0.852 v -1.068 q -0.384,0.48 -0.888,0.708 -0.492,0.228 -0.996,0.228 -0.648,0 -1.236,-0.348 -0.588,-0.348 -0.96,-0.996 -0.372,-0.648 -0.372,-1.548 0,-1.044 0.372,-1.704 0.372,-0.672 0.948,-0.996 0.576,-0.324 1.188,-0.324 0.564,0 1.08,0.252 0.528,0.252 0.864,0.744 l 0.24,-0.816 h 1.572 v 5.508 q 0,1.488 -0.804,2.184 -0.804,0.696 -2.232,0.696 z m -0.012,-4.068 q 0.36,0 0.648,-0.132 0.3,-0.144 0.48,-0.48 0.18,-0.336 0.18,-0.912 0,-0.876 -0.396,-1.212 -0.384,-0.336 -0.912,-0.336 -0.54,0 -0.936,0.36 -0.384,0.36 -0.384,1.14 0,0.792 0.384,1.188 0.396,0.384 0.936,0.384 z"
         style="word-spacing:-0.65px;fill:#ffffff"
         id="path1200" />
    </g>
    <path
       style="font-variation-settings:normal;vector-effect:none;fill:#ffffff;fill-opacity:1;stroke-width:0.89571;stroke-linecap:butt;stroke-linejoin:miter;stroke-miterlimit:4;stroke-dasharray:none;stroke-dashoffset:0;stroke-opacity:1;-inkscape-stroke:none;stop-color:#000000"
       d="m 32.706033,-12.499847 c 0,0 4.766929,3.4256546 2.162057,6.9154596 -2.324752,3.114523 -1.055295,7.779863 -0.178508,8.291245 0.87678,0.511382 -5.454322,-2.86034904 -3.500173,-7.068876 1.758757,-3.787724 3.716871,-4.298767 1.416051,-8.1680616 z"
       id="path1578"
       sodipodi:nodetypes="cssscc" />
    <g
       aria-label=" 0 ads  0 subscriptions 0 life story       "
       transform="matrix(1.2726232,0,0,1.5080091,5.8466027,-53.672599)"
       id="text969"
       style="font-style:italic;font-size:8px;font-family:serif;-inkscape-font-specification:'serif Italic';white-space:pre;inline-size:73.4534;display:inline;fill:#ffffff">
      <path
         d="m 37.273687,91.008678 q -0.887999,0 -1.352,-0.544 -0.464,-0.544 -0.464,-1.56 0,-0.304 0.048,-0.664 0.168,-1.336 0.792001,-2.048 0.631999,-0.72 1.655999,-0.72 0.896001,0 1.36,0.544 0.464,0.536 0.464,1.56 0,0.304 -0.048,0.664 -0.168,1.328 -0.8,2.048 -0.624,0.72 -1.656,0.72 z m 1.376,-1.472 q 0.256,-0.528 0.352001,-1.296 0.016,-0.144 0.024,-0.296 0.016,-0.16 0.016,-0.32 0,-0.384 -0.096,-0.736 -0.096,-0.36 -0.344,-0.584 -0.248,-0.232 -0.72,-0.232 -0.455999,0 -0.792,0.248 z m -1.304,0.872 q 0.496,0 0.848001,-0.28 l -1.576,-3.24 q -0.144001,0.256 -0.240001,0.6 -0.088,0.336 -0.143999,0.752 -0.016,0.152 -0.032,0.312 -0.008,0.152 -0.008,0.304 0,0.424 0.104,0.776 0.104,0.352 0.351999,0.568 0.256,0.208 0.696,0.208 z"
         style="font-family:'Atkinson Hyperlegible';-inkscape-font-specification:'Atkinson Hyperlegible Italic';fill:#ffffff"
         id="path1113" />
      <path
         d="m 43.633672,91.008678 q -0.512,0 -0.856,-0.28 -0.336,-0.28 -0.336,-0.752 0,-0.4 0.208,-0.664 0.216,-0.264 0.552,-0.424 0.344,-0.16 0.736,-0.24 0.4,-0.088 0.776,-0.128 0.376,-0.04 0.648,-0.072 0.024,-0.112 0.04,-0.208 0.016,-0.096 0.016,-0.184 0,-0.632 -0.736,-0.632 -0.368,0 -0.624,0.168 -0.256,0.16 -0.392,0.448 l -0.6,-0.184 q 0.208,-0.448 0.608,-0.712 0.4,-0.264 0.976,-0.264 0.696,0 1.072,0.28 0.376,0.28 0.376,0.864 0,0.136 -0.024,0.272 -0.016,0.136 -0.072,0.384 -0.048,0.248 -0.152,0.728 -0.104,0.496 -0.144,0.864 -0.032,0.36 -0.04,0.64 h -0.632 l -0.032,-0.504 q -0.264,0.296 -0.584,0.448 -0.312,0.152 -0.784,0.152 z m 0.216,-0.552 q 0.544,0 0.928,-0.36 0.392,-0.368 0.496,-0.976 l 0.024,-0.136 q -0.664,0.064 -1.136,0.152 -0.472,0.08 -0.72,0.256 -0.248,0.176 -0.248,0.52 0,0.272 0.192,0.408 0.192,0.136 0.464,0.136 z"
         style="font-family:'Atkinson Hyperlegible';-inkscape-font-specification:'Atkinson Hyperlegible Italic';fill:#ffffff"
         id="path1115" />
      <path
         d="m 48.209672,91.008678 q -0.448,0 -0.768,-0.216 -0.32,-0.216 -0.488,-0.592 -0.168,-0.384 -0.168,-0.872 0,-0.48 0.136,-0.912 0.136,-0.44 0.384,-0.784 0.256,-0.352 0.616,-0.552 0.36,-0.2 0.816,-0.2 0.472,0 0.792,0.248 0.32,0.24 0.432,0.6 l 0.456,-2.16 h 0.688 q 0,0 -0.048,0.216 -0.04,0.208 -0.12,0.568 -0.072,0.352 -0.168,0.776 -0.088,0.424 -0.184,0.864 -0.088,0.432 -0.168,0.808 -0.08,0.368 -0.128,0.608 -0.04,0.2 -0.112,0.592 -0.064,0.392 -0.072,0.912 h -0.648 l -0.04,-0.488 q -0.2,0.256 -0.488,0.424 -0.28,0.16 -0.72,0.16 z m 0.168,-0.576 q 0.416,0 0.72,-0.24 0.312,-0.248 0.48,-0.648 0.176,-0.408 0.176,-0.88 0,-0.552 -0.24,-0.88 -0.24,-0.328 -0.704,-0.328 -0.416,0 -0.712,0.28 -0.288,0.272 -0.44,0.704 -0.152,0.424 -0.152,0.88 0,0.56 0.256,0.84 0.264,0.272 0.616,0.272 z"
         style="font-family:'Atkinson Hyperlegible';-inkscape-font-specification:'Atkinson Hyperlegible Italic';fill:#ffffff"
         id="path1117" />
      <path
         d="m 52.713659,91.008678 q -0.6,0 -1.008,-0.232 -0.408,-0.232 -0.616,-0.768 l 0.688,-0.232 q 0.064,0.352 0.352,0.52 0.288,0.168 0.608,0.168 0.328,0 0.6,-0.168 0.272,-0.168 0.272,-0.48 0,-0.224 -0.16,-0.344 -0.16,-0.128 -0.416,-0.208 -0.248,-0.08 -0.528,-0.152 -0.28,-0.08 -0.536,-0.2 -0.248,-0.128 -0.408,-0.344 -0.16,-0.216 -0.16,-0.576 0,-0.376 0.224,-0.616 0.224,-0.248 0.568,-0.368 0.352,-0.128 0.736,-0.128 0.328,0 0.64,0.096 0.312,0.088 0.552,0.272 0.24,0.176 0.336,0.448 l -0.64,0.224 q -0.08,-0.24 -0.36,-0.36 -0.28,-0.128 -0.584,-0.128 -0.304,0 -0.552,0.128 -0.24,0.128 -0.24,0.392 0,0.216 0.16,0.344 0.16,0.12 0.416,0.2 0.256,0.08 0.536,0.16 0.288,0.072 0.544,0.2 0.256,0.128 0.416,0.344 0.16,0.208 0.16,0.568 0,0.408 -0.216,0.688 -0.216,0.272 -0.576,0.416 -0.36,0.136 -0.808,0.136 z"
         style="font-family:'Atkinson Hyperlegible';-inkscape-font-specification:'Atkinson Hyperlegible Italic';fill:#ffffff"
         id="path1119" />
      <path
         d="m 37.273687,101.05958 q -0.887999,0 -1.352,-0.544 -0.464,-0.543999 -0.464,-1.559999 0,-0.304 0.048,-0.664 0.168,-1.336 0.792001,-2.048 0.631999,-0.72 1.655999,-0.72 0.896001,0 1.36,0.544 0.464,0.536 0.464,1.56 0,0.304 -0.048,0.664 -0.168,1.328 -0.8,2.047999 -0.624,0.72 -1.656,0.72 z m 1.376,-1.471999 q 0.256,-0.528 0.352001,-1.296 0.016,-0.144 0.024,-0.296 0.016,-0.16 0.016,-0.32 0,-0.384 -0.096,-0.736 -0.096,-0.36 -0.344,-0.584 -0.248,-0.232 -0.72,-0.232 -0.455999,0 -0.792,0.248 z m -1.304,0.871999 q 0.496,0 0.848001,-0.28 l -1.576,-3.239999 q -0.144001,0.256 -0.240001,0.6 -0.088,0.336 -0.143999,0.752 -0.016,0.152 -0.032,0.312 -0.008,0.152 -0.008,0.304 0,0.424 0.104,0.776 0.104,0.351999 0.351999,0.567999 0.256,0.208 0.696,0.208 z"
         style="font-family:'Atkinson Hyperlegible';-inkscape-font-specification:'Atkinson Hyperlegible Italic';fill:#ffffff"
         id="path1121" />
      <path
         d="m 44.105672,101.05958 q -0.6,0 -1.008,-0.232 -0.408,-0.232 -0.616,-0.768 l 0.688,-0.231999 q 0.064,0.351999 0.352,0.519999 0.288,0.168 0.608,0.168 0.328,0 0.6,-0.168 0.272,-0.168 0.272,-0.479999 0,-0.224 -0.16,-0.344 -0.16,-0.128 -0.416,-0.208 -0.248,-0.08 -0.528,-0.152 -0.28,-0.08 -0.536,-0.2 -0.248,-0.128 -0.408,-0.344 -0.16,-0.216 -0.16,-0.576 0,-0.376 0.224,-0.616 0.224,-0.248 0.568,-0.368 0.352,-0.128 0.736,-0.128 0.328,0 0.64,0.096 0.312,0.088 0.552,0.272 0.24,0.176 0.336,0.448 l -0.64,0.224 q -0.08,-0.24 -0.36,-0.36 -0.28,-0.128 -0.584,-0.128 -0.304,0 -0.552,0.128 -0.24,0.128 -0.24,0.392 0,0.216 0.16,0.344 0.16,0.12 0.416,0.2 0.256,0.08 0.536,0.16 0.288,0.072 0.544,0.2 0.256,0.128 0.416,0.344 0.16,0.208 0.16,0.568 0,0.407999 -0.216,0.687999 -0.216,0.272 -0.576,0.416 -0.36,0.136 -0.808,0.136 z"
         style="font-family:'Atkinson Hyperlegible';-inkscape-font-specification:'Atkinson Hyperlegible Italic';fill:#ffffff"
         id="path1123" />
      <path
         d="m 47.617658,101.05158 q -0.584,0 -0.824,-0.32 -0.24,-0.32 -0.24,-0.791999 0,-0.288 0.072,-0.6 l 0.496,-2.344 h 0.688 l -0.496,2.328 q -0.032,0.144 -0.056,0.288 -0.016,0.136 -0.016,0.256 0,0.263999 0.128,0.431999 0.136,0.168 0.488,0.168 0.472,0 0.832,-0.32 0.36,-0.327999 0.52,-1.071999 l 0.448,-2.08 h 0.68 l -0.84,3.967999 h -0.52 l -0.048,-0.56 q -0.256,0.336 -0.56,0.496 -0.296,0.152 -0.752,0.152 z"
         style="font-family:'Atkinson Hyperlegible';-inkscape-font-specification:'Atkinson Hyperlegible Italic';fill:#ffffff"
         id="path1125" />
      <path
         d="m 52.68165,101.05958 q -0.448,0 -0.752,-0.2 -0.296,-0.208 -0.48,-0.552 l -0.328,0.656 h -0.512 l 1.136,-5.343999 h 0.688 l -0.408,1.904 q 0.272,-0.352 0.568,-0.472 0.296,-0.12 0.552,-0.12 0.568,0 0.888,0.248 0.32,0.248 0.456,0.64 0.136,0.384 0.136,0.8 0,0.432 -0.128,0.864 -0.12,0.424 -0.368,0.783999 -0.24,0.36 -0.608,0.576 -0.36,0.216 -0.84,0.216 z m -0.072,-0.576 q 0.344,0 0.584,-0.176 0.248,-0.184 0.4,-0.463999 0.16,-0.28 0.232,-0.6 0.08,-0.32 0.08,-0.608 0,-0.496 -0.216,-0.808 -0.216,-0.32 -0.68,-0.32 -0.328,0 -0.584,0.168 -0.248,0.16 -0.424,0.424 -0.168,0.264 -0.256,0.576 -0.088,0.312 -0.088,0.6 0,0.312 0.104,0.592 0.104,0.271999 0.312,0.447999 0.216,0.168 0.536,0.168 z"
         style="font-family:'Atkinson Hyperlegible';-inkscape-font-specification:'Atkinson Hyperlegible Italic';fill:#ffffff"
         id="path1127" />
      <path
         d="m 56.697637,101.05958 q -0.6,0 -1.008,-0.232 -0.408,-0.232 -0.616,-0.768 l 0.688,-0.231999 q 0.064,0.351999 0.352,0.519999 0.288,0.168 0.608,0.168 0.328,0 0.6,-0.168 0.272,-0.168 0.272,-0.479999 0,-0.224 -0.16,-0.344 -0.16,-0.128 -0.416,-0.208 -0.248,-0.08 -0.528,-0.152 -0.28,-0.08 -0.536,-0.2 -0.248,-0.128 -0.408,-0.344 -0.16,-0.216 -0.16,-0.576 0,-0.376 0.224,-0.616 0.224,-0.248 0.568,-0.368 0.352,-0.128 0.736,-0.128 0.328,0 0.64,0.096 0.312,0.088 0.552,0.272 0.24,0.176 0.336,0.448 l -0.64,0.224 q -0.08,-0.24 -0.36,-0.36 -0.28,-0.128 -0.584,-0.128 -0.304,0 -0.552,0.128 -0.24,0.128 -0.24,0.392 0,0.216 0.16,0.344 0.16,0.12 0.416,0.2 0.256,0.08 0.536,0.16 0.288,0.072 0.544,0.2 0.256,0.128 0.416,0.344 0.16,0.208 0.16,0.568 0,0.407999 -0.216,0.687999 -0.216,0.272 -0.576,0.416 -0.36,0.136 -0.808,0.136 z"
         style="font-family:'Atkinson Hyperlegible';-inkscape-font-specification:'Atkinson Hyperlegible Italic';fill:#ffffff"
         id="path1129" />
      <path
         d="m 60.601623,101.05958 q -0.744,0 -1.16,-0.44 -0.408,-0.44 -0.408,-1.191999 0,-0.68 0.264,-1.24 0.272,-0.568 0.76,-0.912 0.496,-0.344 1.152,-0.344 0.544,0 0.912,0.232 0.368,0.224 0.568,0.656 l -0.664,0.232 q -0.08,-0.24 -0.312,-0.384 -0.232,-0.144 -0.536,-0.144 -0.456,0 -0.768,0.264 -0.312,0.264 -0.48,0.688 -0.16,0.424 -0.16,0.912 0,0.456 0.216,0.767999 0.224,0.312 0.768,0.312 0.328,0 0.568,-0.136 0.248,-0.144 0.424,-0.383999 l 0.568,0.223999 q -0.272,0.44 -0.728,0.664 -0.448,0.224 -0.984,0.224 z"
         style="font-family:'Atkinson Hyperlegible';-inkscape-font-specification:'Atkinson Hyperlegible Italic';fill:#ffffff"
         id="path1131" />
      <path
         d="m 62.849614,100.96358 0.84,-3.967999 h 0.504 l 0.064,0.744 q 0.248,-0.352 0.576,-0.576 0.336,-0.232 0.928,-0.232 h 0.088 l -0.152,0.712 q -0.224,-0.008 -0.416,0.024 -0.608,0.096 -0.936,0.544 -0.32,0.44 -0.464,1.112 l -0.344,1.639999 z"
         style="font-family:'Atkinson Hyperlegible';-inkscape-font-specification:'Atkinson Hyperlegible Italic';fill:#ffffff"
         id="path1133" />
      <path
         d="m 67.441604,96.235581 q -0.2,0 -0.352,-0.144 -0.144,-0.152 -0.144,-0.352 0,-0.208 0.144,-0.352 0.152,-0.152 0.352,-0.152 0.208,0 0.352,0.152 0.152,0.144 0.152,0.352 0,0.2 -0.152,0.352 -0.144,0.144 -0.352,0.144 z m -1.464,4.727999 0.728,-3.423999 h -0.64 l 0.112,-0.544 h 1.328 l -0.84,3.967999 z"
         style="font-family:'Atkinson Hyperlegible';-inkscape-font-specification:'Atkinson Hyperlegible Italic';fill:#ffffff"
         id="path1135" />
      <path
         d="m 67.561592,102.25958 1.12,-5.263999 h 0.504 l 0.04,0.528 q 0.16,-0.232 0.448,-0.408 0.296,-0.184 0.744,-0.184 0.488,0 0.8,0.232 0.32,0.224 0.472,0.608 0.16,0.384 0.16,0.848 0,0.424 -0.12,0.856 -0.12,0.424 -0.36,0.783999 -0.232,0.36 -0.6,0.584 -0.36,0.216 -0.848,0.216 -0.472,0 -0.792,-0.224 -0.312,-0.224 -0.448,-0.616 l -0.432,2.04 z m 2.288,-1.768 q 0.312,0 0.544,-0.168 0.24,-0.168 0.4,-0.439999 0.168,-0.28 0.248,-0.616 0.088,-0.344 0.088,-0.68 0,-0.504 -0.24,-0.792 -0.24,-0.288 -0.664,-0.288 -0.416,0 -0.72,0.272 -0.296,0.264 -0.464,0.672 -0.16,0.408 -0.16,0.84 0,0.496 0.256,0.847999 0.256,0.352 0.712,0.352 z"
         style="font-family:'Atkinson Hyperlegible';-inkscape-font-specification:'Atkinson Hyperlegible Italic';fill:#ffffff"
         id="path1137" />
      <path
         d="m 73.49759,100.96358 q -0.464,0 -0.64,-0.128 -0.168,-0.136 -0.168,-0.408 0,-0.176 0.08,-0.543999 l 0.504,-2.344 h -0.664 l 0.112,-0.544 h 0.664 l 0.216,-0.992 h 0.688 l -0.216,0.992 h 0.76 l -0.112,0.544 h -0.76 l -0.464,2.152 q -0.032,0.144 -0.056,0.264 -0.016,0.111999 -0.016,0.175999 0,0.128 0.072,0.184 0.072,0.048 0.272,0.048 h 0.352 l -0.128,0.6 z"
         style="font-family:'Atkinson Hyperlegible';-inkscape-font-specification:'Atkinson Hyperlegible Italic';fill:#ffffff"
         id="path1139" />
      <path
         d="m 76.641586,96.235581 q -0.2,0 -0.352,-0.144 -0.144,-0.152 -0.144,-0.352 0,-0.208 0.144,-0.352 0.152,-0.152 0.352,-0.152 0.208,0 0.352,0.152 0.152,0.144 0.152,0.352 0,0.2 -0.152,0.352 -0.144,0.144 -0.352,0.144 z m -1.464,4.727999 0.728,-3.423999 h -0.64 l 0.112,-0.544 h 1.328 l -0.84,3.967999 z"
         style="font-family:'Atkinson Hyperlegible';-inkscape-font-specification:'Atkinson Hyperlegible Italic';fill:#ffffff"
         id="path1141" />
      <path
         d="m 78.809574,101.05958 q -0.8,0 -1.216,-0.472 -0.408,-0.472 -0.408,-1.215999 0,-0.696 0.28,-1.248 0.28,-0.552 0.776,-0.872 0.504,-0.32 1.152,-0.32 0.408,0 0.768,0.176 0.368,0.176 0.592,0.544 0.232,0.36 0.232,0.928 0,0.504 -0.16,0.952 -0.16,0.448 -0.448,0.791999 -0.288,0.344 -0.688,0.544 -0.4,0.192 -0.88,0.192 z m 0.056,-0.592 q 0.464,0 0.776,-0.28 0.312,-0.279999 0.472,-0.711999 0.16,-0.44 0.16,-0.92 0,-0.584 -0.288,-0.808 -0.28,-0.224 -0.696,-0.224 -0.472,0 -0.784,0.272 -0.312,0.272 -0.464,0.696 -0.152,0.424 -0.152,0.888 0,0.488 0.248,0.791999 0.248,0.296 0.728,0.296 z"
         style="font-family:'Atkinson Hyperlegible';-inkscape-font-specification:'Atkinson Hyperlegible Italic';fill:#ffffff"
         id="path1143" />
      <path
         d="m 81.409566,100.96358 0.84,-3.967999 h 0.512 l 0.048,0.552 q 0.2,-0.256 0.52,-0.432 0.328,-0.184 0.864,-0.184 0.504,0 0.784,0.272 0.288,0.272 0.288,0.84 0,0.272 -0.072,0.624 l -0.496,2.295999 h -0.68 l 0.472,-2.231999 q 0.072,-0.352 0.072,-0.576 0,-0.352 -0.16,-0.488 -0.16,-0.144 -0.504,-0.144 -0.288,0 -0.56,0.128 -0.272,0.128 -0.488,0.432 -0.208,0.304 -0.32,0.824 l -0.432,2.055999 z"
         style="font-family:'Atkinson Hyperlegible';-inkscape-font-specification:'Atkinson Hyperlegible Italic';fill:#ffffff"
         id="path1145" />
      <path
         d="m 87.44956,101.05958 q -0.6,0 -1.008,-0.232 -0.408,-0.232 -0.616,-0.768 l 0.688,-0.231999 q 0.064,0.351999 0.352,0.519999 0.288,0.168 0.608,0.168 0.328,0 0.6,-0.168 0.272,-0.168 0.272,-0.479999 0,-0.224 -0.16,-0.344 -0.16,-0.128 -0.416,-0.208 -0.248,-0.08 -0.528,-0.152 -0.28,-0.08 -0.536,-0.2 -0.248,-0.128 -0.408,-0.344 -0.16,-0.216 -0.16,-0.576 0,-0.376 0.224,-0.616 0.224,-0.248 0.568,-0.368 0.352,-0.128 0.736,-0.128 0.328,0 0.64,0.096 0.312,0.088 0.552,0.272 0.24,0.176 0.336,0.448 l -0.64,0.224 q -0.08,-0.24 -0.36,-0.36 -0.28,-0.128 -0.584,-0.128 -0.304,0 -0.552,0.128 -0.24,0.128 -0.24,0.392 0,0.216 0.16,0.344 0.16,0.12 0.416,0.2 0.256,0.08 0.536,0.16 0.288,0.072 0.544,0.2 0.256,0.128 0.416,0.344 0.16,0.208 0.16,0.568 0,0.407999 -0.216,0.687999 -0.216,0.272 -0.576,0.416 -0.36,0.136 -0.808,0.136 z"
         style="font-family:'Atkinson Hyperlegible';-inkscape-font-specification:'Atkinson Hyperlegible Italic';fill:#ffffff"
         id="path1147" />
      <path
         d="m 37.273687,111.11048 q -0.887999,0 -1.352,-0.544 -0.464,-0.544 -0.464,-1.56 0,-0.304 0.048,-0.664 0.168,-1.336 0.792001,-2.048 0.631999,-0.72 1.655999,-0.72 0.896001,0 1.36,0.544 0.464,0.536 0.464,1.56 0,0.304 -0.048,0.664 -0.168,1.328 -0.8,2.048 -0.624,0.72 -1.656,0.72 z m 1.376,-1.472 q 0.256,-0.528 0.352001,-1.296 0.016,-0.144 0.024,-0.296 0.016,-0.16 0.016,-0.32 0,-0.384 -0.096,-0.736 -0.096,-0.36 -0.344,-0.584 -0.248,-0.232 -0.72,-0.232 -0.455999,0 -0.792,0.248 z m -1.304,0.872 q 0.496,0 0.848001,-0.28 l -1.576,-3.24 q -0.144001,0.256 -0.240001,0.6 -0.088,0.336 -0.143999,0.752 -0.016,0.152 -0.032,0.312 -0.008,0.152 -0.008,0.304 0,0.424 0.104,0.776 0.104,0.352 0.351999,0.568 0.256,0.208 0.696,0.208 z"
         style="font-family:'Atkinson Hyperlegible';-inkscape-font-specification:'Atkinson Hyperlegible Italic';fill:#ffffff"
         id="path1149" />
      <path
         d="m 43.833557,110.60042 h 0.679688 l -0.07813,0.41406 h -1.398438 l 1.101563,-5.66406 h -0.691407 l 0.07813,-0.41406 h 1.410157 z"
         id="path1151"
         style="fill:#ffffff" />
      <path
         d="m 46.524963,105.57308 q 0.03516,-0.17969 0.191407,-0.3125 0.15625,-0.13281 0.339843,-0.13281 0.179688,0 0.285157,0.13281 0.08203,0.10156 0.08203,0.22656 0,0.043 -0.01172,0.0859 -0.03516,0.18359 -0.191406,0.3125 -0.152344,0.1289 -0.335938,0.1289 -0.183593,0 -0.289062,-0.1289 -0.07813,-0.0977 -0.07813,-0.22266 0,-0.043 0.0078,-0.0898 z m -0.05859,5.02734 h 0.679687 l -0.07813,0.41406 h -1.398437 l 0.722656,-3.73437 h -0.6875 l 0.08203,-0.41797 h 1.40625 z"
         id="path1153"
         style="fill:#ffffff" />
      <path
         d="m 51.81012,105.91683 h -0.378907 q 0.01563,-0.082 0.01563,-0.15625 0,-0.17969 -0.09375,-0.28906 -0.132812,-0.15235 -0.441406,-0.15235 -0.402344,0 -0.609375,0.22266 -0.207031,0.21875 -0.316406,0.78515 l -0.105469,0.53516 h 1.160156 l -0.08203,0.41797 h -1.160156 l -0.773438,3.99219 q -0.136718,0.69531 -0.566406,1.05078 -0.429687,0.35547 -1.128906,0.35547 l 0.04687,-0.38282 q 0.410156,0 0.609375,-0.21875 0.207031,-0.23437 0.320312,-0.80468 l 0.773438,-3.99219 h -0.6875 l 0.08203,-0.41797 h 0.6875 l 0.101563,-0.51953 q 0.136718,-0.69922 0.566406,-1.05078 0.429687,-0.35547 1.128906,-0.35547 0.261719,0 0.511719,0.0469 0.253906,0.0469 0.496094,0.14454 z"
         id="path1155"
         style="fill:#ffffff" />
      <path
         d="m 51.954651,109.42073 q -0.01563,0.14844 -0.01563,0.28125 0,0.36719 0.132812,0.60938 0.230469,0.42969 0.847657,0.42969 0.453125,0 0.675781,-0.13672 0.398437,-0.2461 0.492187,-0.5625 h 0.527344 q -0.15625,0.49609 -0.738281,0.84375 -0.40625,0.24219 -1.210938,0.24219 -0.804687,0 -1.238281,-0.59766 -0.304687,-0.41797 -0.304687,-1.02344 0,-0.26562 0.05859,-0.5664 0.191407,-0.98829 0.851563,-1.58985 0.660156,-0.60156 1.597656,-0.60156 1.527344,0 1.527344,1.08203 0,0.79297 -0.800781,1.17969 -0.816407,0.39453 -2.402344,0.41015 z m 2.003906,-0.875 q 0.4375,-0.25781 0.4375,-0.74218 0,-0.66797 -0.886719,-0.66797 -0.523437,0 -0.886718,0.39844 -0.363282,0.39843 -0.585938,1.47265 1.253906,-0.0586 1.921875,-0.46094 z"
         id="path1157"
         style="fill:#ffffff" />
      <path
         d="m 58.337463,109.81527 h 0.414063 q -0.01563,0.11328 -0.01563,0.21484 0,0.71094 0.964844,0.71094 0.96875,0 1.109375,-0.71094 0.01172,-0.0703 0.01172,-0.19531 0,-0.1211 -0.132812,-0.26563 -0.132813,-0.14844 -0.691406,-0.33984 l -0.488282,-0.17578 q -0.5,-0.17188 -0.664062,-0.39063 -0.160156,-0.22265 -0.160156,-0.47656 0,-0.10156 0.01953,-0.21875 0.113281,-0.57031 0.59375,-0.89453 0.480469,-0.32422 1.175781,-0.32422 0.691406,0 1.417969,0.33594 l -0.175781,0.90625 h -0.414063 q 0.01563,-0.0898 0.01563,-0.16797 0,-0.28516 -0.199219,-0.48438 -0.195312,-0.20312 -0.652343,-0.20312 -0.917969,0 -1.042969,0.64062 -0.01563,0.0664 -0.01563,0.1836 0,0.12109 0.125,0.25781 0.128906,0.13672 0.625,0.30078 l 0.535156,0.17578 q 0.554688,0.1836 0.761719,0.46094 0.144531,0.19531 0.144531,0.38672 0,0.82031 -0.65625,1.24609 -0.515625,0.33985 -1.304687,0.33985 -0.789063,0 -1.488282,-0.34375 z"
         id="path1159"
         style="fill:#ffffff" />
      <path
         d="m 63.235901,107.28011 h -0.632813 l 0.08203,-0.41797 h 0.632812 l 0.25,-1.28906 h 0.722656 l -0.25,1.28906 h 1.351563 l -0.08203,0.41797 h -1.351563 l -0.511719,2.63672 q -0.05859,0.30859 -0.05859,0.48828 0,0.125 0.02734,0.1875 0.07422,0.14844 0.347657,0.14844 0.28125,0 0.441406,-0.16407 0.164062,-0.16796 0.242187,-0.53906 h 0.542969 q -0.140625,0.56641 -0.46875,0.82813 -0.328125,0.26172 -0.894531,0.26172 -0.621094,0 -0.828125,-0.27735 -0.125,-0.16797 -0.125,-0.48047 0,-0.19922 0.05078,-0.45312 z"
         id="path1161"
         style="fill:#ffffff" />
      <path
         d="m 67.43512,110.74105 q 0.578125,0 0.960937,-0.45703 0.386719,-0.45704 0.558594,-1.34766 0.07813,-0.40625 0.07813,-0.72266 0,-0.375 -0.109375,-0.62109 -0.207031,-0.45703 -0.785156,-0.45703 -0.578125,0 -0.964844,0.45703 -0.382813,0.45312 -0.554688,1.34375 -0.07813,0.40625 -0.07813,0.71875 0,0.37891 0.113282,0.62891 0.207031,0.45703 0.78125,0.45703 z m -0.07422,0.38672 q -0.90625,0 -1.339844,-0.59766 -0.300781,-0.41797 -0.300781,-1.01953 0,-0.26953 0.05859,-0.57422 0.191406,-0.99219 0.855468,-1.58984 0.667969,-0.59766 1.578125,-0.59766 0.910157,0 1.34375,0.59766 0.296875,0.41406 0.296875,1.01562 0,0.26953 -0.05859,0.57422 -0.191407,0.99219 -0.859375,1.59375 -0.664063,0.59766 -1.574218,0.59766 z"
         id="path1163"
         style="fill:#ffffff" />
      <path
         d="m 74.415588,106.85433 -0.203125,1.03906 h -0.414062 q 0.01172,-0.0781 0.01172,-0.14453 0,-0.20313 -0.09375,-0.31641 -0.121094,-0.15234 -0.414063,-0.15234 -0.53125,0 -0.886719,0.36719 -0.355468,0.36718 -0.488281,1.05468 l -0.449219,2.3125 h -0.71875 l 0.726563,-3.74218 h -0.6875 l 0.07813,-0.41016 h 1.40625 l -0.140625,0.73828 q 0.292969,-0.43359 0.664062,-0.64062 0.375,-0.21094 0.851563,-0.21094 0.175781,0 0.363281,0.0273 0.1875,0.0273 0.394531,0.0781 z"
         id="path1165"
         style="fill:#ffffff" />
      <path
         d="m 78.62262,106.8973 q -0.386719,2.23437 -1.066407,3.41406 -0.996093,1.73047 -1.796875,2.25 -0.355468,0.23047 -1.292968,0.23047 -0.183594,0 -0.371094,-0.0312 -0.183594,-0.0312 -0.371094,-0.0898 l 0.15625,-0.79296 h 0.367188 q -0.0078,0.0625 -0.0078,0.12109 0,0.16406 0.07031,0.25781 0.09766,0.13281 0.351562,0.13281 0.6875,0 1.285156,-0.59765 l -0.980468,-4.51172 h -0.472657 l 0.08203,-0.41797 h 1.074218 l 0.921875,4.12109 q 0.628907,-0.9414 0.78125,-1.32812 0.492188,-1.21484 0.589844,-2.33984 h -0.472656 l 0.08203,-0.41797 z"
         id="path1167"
         style="fill:#ffffff" />
    </g>
  </g>
</svg>
