<?xml version="1.0" encoding="UTF-8" standalone="no"?>
<!-- Created with Inkscape (http://www.inkscape.org/) -->

<svg
   width="151.18132"
   height="61.436813"
   viewBox="0 0 151.18131 61.436812"
   version="1.1"
   id="svg5"
   inkscape:version="1.2.1 (9c6d41e410, 2022-07-14)"
   sodipodi:docname="logo.svg"
   xmlns:inkscape="http://www.inkscape.org/namespaces/inkscape"
   xmlns:sodipodi="http://sodipodi.sourceforge.net/DTD/sodipodi-0.dtd"
   xmlns="http://www.w3.org/2000/svg"
   xmlns:svg="http://www.w3.org/2000/svg">
  <sodipodi:namedview
     id="namedview7"
     pagecolor="#ffffff"
     bordercolor="#000000"
     borderopacity="0.25"
     inkscape:showpageshadow="2"
     inkscape:pageopacity="0.0"
     inkscape:pagecheckerboard="0"
     inkscape:deskcolor="#d1d1d1"
     inkscape:document-units="px"
     showgrid="false"
     inkscape:zoom="3.4451814"
     inkscape:cx="80.692414"
     inkscape:cy="103.76812"
     inkscape:window-width="1895"
     inkscape:window-height="1014"
     inkscape:window-x="11"
     inkscape:window-y="33"
     inkscape:window-maximized="1"
     inkscape:current-layer="layer1"
     showguides="true">
    <sodipodi:guide
       position="53.582145,8.2310661"
       orientation="0,-1"
       id="guide380"
       inkscape:locked="false" />
    <sodipodi:guide
       position="57.481803,16.235636"
       orientation="0,-1"
       id="guide382"
       inkscape:locked="false" />
  </sodipodi:namedview>
  <defs
     id="defs2">
    <rect
       x="8.518219"
       y="27.181501"
       width="95.212624"
       height="115.71836"
       id="rect133" />
    <rect
       x="8.518219"
       y="27.181501"
       width="95.212624"
       height="115.71836"
       id="rect133-3" />
  </defs>
  <g
     inkscape:label="Layer 1"
     inkscape:groupmode="layer"
     id="layer1"
     transform="translate(-7.7861523,-1.1842234)">
    <g
       aria-label="0"
       transform="matrix(2.5736227,0,0,2.5736227,-14.941951,-72.648167)"
       id="text131"
       style="white-space:pre;shape-inside:url(#rect133);display:inline">
      <path
         d="m 12.489578,38.019189 q -1.116,0 -1.884,-0.504 -0.7679999,-0.516 -1.1639999,-1.452 -0.384,-0.936 -0.384,-2.208 0,-1.932 0.876,-3.036 0.8759999,-1.104 2.5559999,-1.104 1.692,0 2.568,1.104 0.876,1.104 0.876,3.036 0,1.272 -0.396,2.208 -0.384,0.936 -1.152,1.452 -0.768,0.504 -1.896,0.504 z m 1.488,-3.096 q 0.072,-0.468 0.072,-1.056 0,-1.464 -0.432,-2.124 -0.42,-0.672 -1.128,-0.672 -0.54,0 -0.924,0.396 z m -1.488,1.74 q 0.6,0 0.972,-0.456 l -2.436,-3.504 q -0.048,0.252 -0.072,0.54 -0.024,0.276 -0.024,0.612 0,1.452 0.432,2.136 0.432,0.672 1.128,0.672 z"
         style="font-weight:bold;font-family:'Atkinson Hyperlegible';-inkscape-font-specification:'Atkinson Hyperlegible Bold'"
         id="path1203" />
    </g>
    <g
       aria-label="bullshit
food blog"
       transform="matrix(2.5736227,0,0,2.5736227,9.9400576,-68.493545)"
       id="text131-6"
       style="line-height:1;letter-spacing:-0.42px;white-space:pre;shape-inside:url(#rect133-3);display:inline">
      <path
         d="m 12.753578,36.519189 q -0.48,0 -1.008,-0.228 -0.516,-0.228 -0.804,-0.72 l -0.228,0.804 H 9.1175781 v -8.016 h 1.8239999 v 2.88 q 0.288,-0.492 0.804,-0.732 0.528,-0.252 1.008,-0.252 0.768,0 1.356,0.372 0.6,0.372 0.936,1.068 0.336,0.684 0.336,1.656 0,0.972 -0.336,1.692 -0.336,0.708 -0.936,1.092 -0.588,0.384 -1.356,0.384 z m -0.576,-1.416 q 0.528,0 0.912,-0.456 0.396,-0.468 0.396,-1.296 0,-0.816 -0.396,-1.248 -0.384,-0.432 -0.912,-0.432 -0.54,0 -0.936,0.408 -0.384,0.396 -0.384,1.308 0,0.924 0.384,1.32 0.396,0.396 0.936,0.396 z"
         style="font-weight:bold;font-family:'Atkinson Hyperlegible';-inkscape-font-specification:'Atkinson Hyperlegible Bold'"
         id="path1170" />
      <path
         d="m 17.913563,36.519189 q -0.792,0 -1.248,-0.288 -0.444,-0.3 -0.636,-0.864 -0.18,-0.564 -0.18,-1.368 v -3.576 h 1.824 v 3.324 q 0,0.816 0.24,1.092 0.252,0.264 0.696,0.264 0.54,0 0.78,-0.36 0.252,-0.36 0.252,-1.188 v -3.132 h 1.836 v 5.952 h -1.584 l -0.252,-0.84 q -0.264,0.444 -0.66,0.72 -0.384,0.264 -1.068,0.264 z"
         style="font-weight:bold;font-family:'Atkinson Hyperlegible';-inkscape-font-specification:'Atkinson Hyperlegible Bold'"
         id="path1172" />
      <path
         d="m 24.237559,36.375189 q -0.732,0 -1.164,-0.12 -0.432,-0.132 -0.624,-0.492 -0.18,-0.372 -0.18,-1.068 v -6.336 h 1.824 v 5.856 q 0,0.42 0.168,0.552 0.168,0.12 0.624,0.12 h 0.516 v 1.488 z"
         style="font-weight:bold;font-family:'Atkinson Hyperlegible';-inkscape-font-specification:'Atkinson Hyperlegible Bold'"
         id="path1174" />
      <path
         d="m 27.58555,36.375189 q -0.732,0 -1.164,-0.12 -0.432,-0.132 -0.624,-0.492 -0.18,-0.372 -0.18,-1.068 v -6.336 h 1.824 v 5.856 q 0,0.42 0.168,0.552 0.168,0.12 0.624,0.12 h 0.516 v 1.488 z"
         style="letter-spacing:-0.18px"
         id="path1176" />
      <path
         d="m 31.773539,36.519189 q -1.044,0 -1.812,-0.384 -0.756,-0.384 -1.104,-1.128 l 1.548,-0.564 q 0.132,0.372 0.504,0.564 0.384,0.18 0.9,0.18 0.444,0 0.78,-0.132 0.348,-0.144 0.348,-0.42 0,-0.192 -0.204,-0.324 -0.204,-0.132 -0.72,-0.216 l -1.068,-0.18 q -0.864,-0.144 -1.404,-0.588 -0.54,-0.444 -0.54,-1.188 0,-0.624 0.372,-1.044 0.384,-0.42 1.008,-0.624 0.624,-0.216 1.356,-0.216 0.852,0 1.572,0.312 0.732,0.3 1.068,1.008 l -1.536,0.564 q -0.084,-0.324 -0.396,-0.432 -0.312,-0.12 -0.72,-0.12 -0.984,0 -0.984,0.48 0,0.18 0.168,0.3 0.168,0.108 0.564,0.18 l 1.104,0.204 q 1.08,0.192 1.596,0.564 0.516,0.372 0.516,1.116 0,0.696 -0.396,1.164 -0.396,0.468 -1.056,0.696 -0.66,0.228 -1.464,0.228 z"
         style="letter-spacing:-0.18px"
         id="path1178" />
      <path
         d="m 35.433521,36.375189 v -8.016 h 1.824 v 2.856 q 0.204,-0.336 0.672,-0.648 0.48,-0.312 1.164,-0.312 1.152,0 1.572,0.648 0.432,0.636 0.432,1.848 v 3.624 h -1.824 v -3.168 q 0,-0.42 -0.048,-0.768 -0.048,-0.348 -0.24,-0.552 -0.18,-0.216 -0.624,-0.216 -0.576,0 -0.84,0.42 -0.264,0.408 -0.264,1.224 v 3.06 z"
         style="font-weight:bold;font-family:'Atkinson Hyperlegible';-inkscape-font-specification:'Atkinson Hyperlegible Bold'"
         id="path1180" />
      <path
         d="m 43.437488,29.439189 q -0.444,0 -0.768,-0.312 -0.312,-0.324 -0.312,-0.768 0,-0.456 0.312,-0.768 0.324,-0.312 0.768,-0.312 0.456,0 0.768,0.312 0.312,0.312 0.312,0.768 0,0.444 -0.312,0.768 -0.312,0.312 -0.768,0.312 z m -0.924,6.936 v -4.56 h -1.128 v -1.392 h 2.964 v 5.952 z"
         style="font-weight:bold;font-family:'Atkinson Hyperlegible';-inkscape-font-specification:'Atkinson Hyperlegible Bold'"
         id="path1182" />
      <path
         d="m 47.565474,36.375189 q -0.732,0 -1.164,-0.12 -0.432,-0.132 -0.624,-0.492 -0.18,-0.372 -0.18,-1.068 v -2.88 h -0.984 v -1.392 h 0.984 v -1.488 h 1.824 v 1.488 h 1.296 v 1.392 h -1.296 v 2.4 q 0,0.42 0.156,0.552 0.168,0.12 0.612,0.12 h 0.528 v 1.488 z"
         style="font-weight:bold;font-family:'Atkinson Hyperlegible';-inkscape-font-specification:'Atkinson Hyperlegible Bold'"
         id="path1184" />
      <path
         d="m 9.5615781,48.451552 v -4.56 h -0.984 v -1.392 h 0.984 v -0.972 q 0,-0.708 0.24,-1.104 0.2399999,-0.396 0.7439999,-0.552 0.504,-0.156 1.308,-0.156 h 0.828 v 1.44 h -0.504 q -0.48,0 -0.636,0.096 -0.156,0.096 -0.156,0.444 v 0.804 h 1.296 v 1.392 h -1.296 v 4.56 z"
         style="word-spacing:-0.65px"
         id="path1186" />
      <path
         d="m 15.69354,48.595552 q -0.828,0 -1.548,-0.336 -0.72,-0.336 -1.164,-1.032 -0.444,-0.708 -0.444,-1.776 0,-1.08 0.444,-1.764 0.444,-0.696 1.164,-1.02 0.72,-0.336 1.548,-0.336 0.816,0 1.536,0.336 0.72,0.324 1.164,1.02 0.444,0.684 0.444,1.764 0,1.068 -0.444,1.776 -0.444,0.696 -1.164,1.032 -0.72,0.336 -1.536,0.336 z m 0,-1.416 q 0.552,0 0.912,-0.396 0.372,-0.396 0.372,-1.332 0,-0.948 -0.384,-1.32 -0.372,-0.384 -0.9,-0.384 -0.54,0 -0.924,0.384 -0.372,0.372 -0.372,1.32 0,0.936 0.372,1.332 0.372,0.396 0.924,0.396 z"
         style="word-spacing:-0.65px"
         id="path1188" />
      <path
         d="m 22.14954,48.595552 q -0.828,0 -1.548,-0.336 -0.72,-0.336 -1.164,-1.032 -0.444,-0.708 -0.444,-1.776 0,-1.08 0.444,-1.764 0.444,-0.696 1.164,-1.02 0.72,-0.336 1.548,-0.336 0.816,0 1.536,0.336 0.72,0.324 1.164,1.02 0.444,0.684 0.444,1.764 0,1.068 -0.444,1.776 -0.444,0.696 -1.164,1.032 -0.72,0.336 -1.536,0.336 z m 0,-1.416 q 0.552,0 0.912,-0.396 0.372,-0.396 0.372,-1.332 0,-0.948 -0.384,-1.32 -0.372,-0.384 -0.9,-0.384 -0.54,0 -0.924,0.384 -0.372,0.372 -0.372,1.32 0,0.936 0.372,1.332 0.372,0.396 0.924,0.396 z"
         style="word-spacing:-0.65px"
         id="path1190" />
      <path
         d="m 28.077539,48.595552 q -0.768,0 -1.368,-0.384 -0.588,-0.384 -0.924,-1.092 -0.336,-0.72 -0.336,-1.692 0,-0.972 0.336,-1.656 0.336,-0.696 0.924,-1.068 0.6,-0.372 1.368,-0.372 0.492,0 1.008,0.252 0.516,0.24 0.804,0.732 v -2.88 h 1.824 v 5.688 q 0,0.444 0.036,1.056 0.048,0.612 0.168,1.272 h -1.74 l -0.24,-0.804 q -0.372,0.516 -0.876,0.732 -0.492,0.216 -0.984,0.216 z m 0.588,-1.416 q 0.528,0 0.912,-0.396 0.396,-0.396 0.396,-1.32 0,-0.912 -0.396,-1.308 -0.384,-0.408 -0.912,-0.408 -0.54,0 -0.936,0.432 -0.384,0.432 -0.384,1.248 0,0.828 0.384,1.296 0.396,0.456 0.936,0.456 z"
         style="word-spacing:-0.65px"
         id="path1192" />
      <path
         d="m 38.899521,48.595552 q -0.48,0 -1.008,-0.228 -0.516,-0.228 -0.804,-0.72 l -0.228,0.804 h -1.596 v -8.016 h 1.824 v 2.88 q 0.288,-0.492 0.804,-0.732 0.528,-0.252 1.008,-0.252 0.768,0 1.356,0.372 0.6,0.372 0.936,1.068 0.336,0.684 0.336,1.656 0,0.972 -0.336,1.692 -0.336,0.708 -0.936,1.092 -0.588,0.384 -1.356,0.384 z m -0.576,-1.416 q 0.528,0 0.912,-0.456 0.396,-0.468 0.396,-1.296 0,-0.816 -0.396,-1.248 -0.384,-0.432 -0.912,-0.432 -0.54,0 -0.936,0.408 -0.384,0.396 -0.384,1.308 0,0.924 0.384,1.32 0.396,0.396 0.936,0.396 z"
         style="word-spacing:-0.65px"
         id="path1194" />
      <path
         d="m 43.963508,48.451552 q -0.732,0 -1.164,-0.12 -0.432,-0.132 -0.624,-0.492 -0.18,-0.372 -0.18,-1.068 v -6.336 h 1.824 v 5.856 q 0,0.42 0.168,0.552 0.168,0.12 0.624,0.12 h 0.516 v 1.488 z"
         style="word-spacing:-0.65px"
         id="path1196" />
      <path
         d="m 48.187496,48.595552 q -0.828,0 -1.548,-0.336 -0.72,-0.336 -1.164,-1.032 -0.444,-0.708 -0.444,-1.776 0,-1.08 0.444,-1.764 0.444,-0.696 1.164,-1.02 0.72,-0.336 1.548,-0.336 0.816,0 1.536,0.336 0.72,0.324 1.164,1.02 0.444,0.684 0.444,1.764 0,1.068 -0.444,1.776 -0.444,0.696 -1.164,1.032 -0.72,0.336 -1.536,0.336 z m 0,-1.416 q 0.552,0 0.912,-0.396 0.372,-0.396 0.372,-1.332 0,-0.948 -0.384,-1.32 -0.372,-0.384 -0.9,-0.384 -0.54,0 -0.924,0.384 -0.372,0.372 -0.372,1.32 0,0.936 0.372,1.332 0.372,0.396 0.924,0.396 z"
         style="word-spacing:-0.65px"
         id="path1198" />
      <path
         d="m 54.715497,50.887552 q -0.492,0 -0.996,-0.132 -0.504,-0.12 -0.936,-0.432 -0.432,-0.312 -0.708,-0.852 l 1.488,-0.54 q 0.168,0.324 0.48,0.444 0.312,0.12 0.624,0.12 0.576,0 0.924,-0.276 0.348,-0.264 0.348,-0.852 v -1.068 q -0.384,0.48 -0.888,0.708 -0.492,0.228 -0.996,0.228 -0.648,0 -1.236,-0.348 -0.588,-0.348 -0.96,-0.996 -0.372,-0.648 -0.372,-1.548 0,-1.044 0.372,-1.704 0.372,-0.672 0.948,-0.996 0.576,-0.324 1.188,-0.324 0.564,0 1.08,0.252 0.528,0.252 0.864,0.744 l 0.24,-0.816 h 1.572 v 5.508 q 0,1.488 -0.804,2.184 -0.804,0.696 -2.232,0.696 z m -0.012,-4.068 q 0.36,0 0.648,-0.132 0.3,-0.144 0.48,-0.48 0.18,-0.336 0.18,-0.912 0,-0.876 -0.396,-1.212 -0.384,-0.336 -0.912,-0.336 -0.54,0 -0.936,0.36 -0.384,0.36 -0.384,1.14 0,0.792 0.384,1.188 0.396,0.384 0.936,0.384 z"
         style="word-spacing:-0.65px"
         id="path1200" />
    </g>
  </g>
</svg>
